<svg xmlns="http://www.w3.org/2000/svg" viewBox="0 0 512 512" role="img" aria-label="CaneLift">
  <defs>
    <linearGradient id="bg" x1="78" y1="52" x2="446" y2="470" gradientUnits="userSpaceOnUse">
      <stop offset="0" stop-color="#006847"/>
      <stop offset="0.54" stop-color="#003F2D"/>
      <stop offset="1" stop-color="#001E17"/>
    </linearGradient>
    <linearGradient id="bolt" x1="102" y1="104" x2="420" y2="424" gradientUnits="userSpaceOnUse">
      <stop offset="0" stop-color="#FF7A1A"/>
      <stop offset="1" stop-color="#F74E00"/>
    </linearGradient>
  </defs>
  <rect width="512" height="512" rx="112" fill="url(#bg)"/>
  <path d="M88 356c77-28 155-39 234-31 45 4 80 14 103 25l-21 46c-31-14-75-22-132-24-65-2-123 9-174 31L88 356Z" fill="#0AD6A0" opacity=".52"/>
  <path d="M384 82 127 285h111l-70 145 222-192H274l110-156Z" fill="url(#bolt)"/>
  <path d="M147 132h58v248h-58zM292 132h58v248h-58z" fill="#fff" opacity=".95"/>
  <path d="M92 232h328v52H92z" fill="#fff" opacity=".95"/>
</svg>
